PathFileType	4	(X/Y/Z)	D:\TRACE\v60_Jaco2_6-2-23\JustBodyDRS_Motion2_9-v60.trc
DataRate	CameraRate	NumFrames	NumMarkers	Units	OrigDataRate	OrigDataStartFrame	OrigNumFrames
100.00	100.00	      31	9	mm	100.00	6034	      6895
Frame#	Time	front left toe			Front right toe			aft left toe			aft right toe			Arm			FL body			FR body			AL Body			AR Body			
		X1	Y1	Z1	X2	Y2	Z2	X3	Y3	Z3	X4	Y4	Z4	X5	Y5	Z5	X6	Y6	Z6	X7	Y7	Z7	X8	Y8	Z8	X9	Y9	Z9	

6034	60.330	-262.34943	0.70592	-220.57239	99.44451	103.30737	-192.58640	-261.62195	143.35367	423.83817	74.66998	42.52650	425.80444	-204.42087	1174.00208	-397.06189	-150.83867	546.18933	-350.26840	9.07784	553.15973	-342.74561	-194.65680	601.45386	593.80939	-37.26459	603.07355	604.96912	
6035	60.340	-261.40259	1.02605	-220.31972	99.43262	115.10800	-193.81833	-266.75345	155.02452	420.78119	75.75436	41.77634	426.02307	-202.64438	1173.80542	-396.03107	-149.81566	546.53284	-349.55725	9.15026	553.48755	-342.30960	-194.63850	600.87225	594.00989	-38.93298	602.32648	603.20337	
6036	60.350	-260.44217	1.64756	-220.25923	98.29146	125.79890	-195.00769	-272.99460	166.32059	418.41748	76.90533	41.12594	426.46365	-201.41260	1174.86206	-395.35455	-149.60510	547.12415	-349.42740	9.52973	553.79584	-341.79492	-194.69058	600.46289	594.53448	-38.54348	601.57520	602.23450	
6037	60.360	-259.13431	1.65437	-220.02739	97.35099	132.73569	-195.05234	-277.89548	175.30536	416.20721	77.54414	40.54834	426.38928	-199.83408	1176.08093	-394.06830	-150.21701	547.97803	-349.37515	10.04172	554.04022	-341.30841	-194.80118	600.25720	594.98584	-38.58496	600.63293	602.89551	
6038	60.370	-257.97592	2.16954	-219.64101	96.32011	135.81538	-194.43335	-283.03595	180.09740	415.28049	79.04508	39.95245	427.04431	-197.89699	1178.02917	-393.16409	-149.91631	548.34698	-348.72070	10.14707	554.17303	-340.92807	-194.99040	599.99188	595.49390	-38.51151	600.43573	603.62799	
6039	60.380	-256.81229	2.56500	-219.38757	95.09846	136.53477	-193.12682	-288.43860	182.40205	414.60959	79.84277	38.94514	427.22653	-196.16843	1179.12646	-391.45468	-148.96564	548.85919	-347.33804	10.57486	554.48267	-340.03781	-194.92889	599.85278	596.34070	-38.53733	599.82977	604.30109	
6040	60.390	-255.24109	3.26344	-219.07703	94.64881	134.50339	-191.92766	-293.61093	181.49983	414.43915	81.09683	38.25156	427.63202	-194.19827	1179.90137	-389.42957	-149.90718	550.05878	-347.06290	10.10372	554.82568	-339.16614	-194.61589	599.76196	597.41974	-38.30916	599.10156	605.23828	
6041	60.400	-254.44887	3.85541	-218.66142	93.41025	131.03656	-190.87859	-300.22751	179.20985	415.17319	81.99496	37.88835	427.92300	-192.25029	1180.41772	-387.89529	-149.96490	550.66064	-346.38110	10.10588	555.08740	-338.16809	-194.17387	599.57678	598.01459	-36.55231	599.59479	609.68817	
6042	60.410	-253.23848	4.11985	-218.34727	91.76973	126.05945	-189.67325	-306.48602	175.71477	415.72214	82.83560	36.72976	428.20157	-190.60719	1181.18091	-386.48984	-149.21397	551.01709	-344.85379	10.07129	555.24091	-337.34845	-193.58522	599.51605	599.17236	-37.87645	598.38977	608.51538	
6043	60.420	-251.95276	4.49959	-218.01363	89.70844	119.59847	-188.72032	-311.62750	170.96252	416.45560	84.69183	36.21106	428.75571	-188.41585	1181.90344	-385.02109	-149.33447	551.44885	-343.71063	10.01176	555.26758	-336.55109	-193.29292	599.06451	600.26843	-37.21789	597.12744	608.05176	
6044	60.430	-251.14680	5.19171	-217.53951	86.67649	112.04499	-187.85286	-316.14542	164.86891	417.27850	85.41431	35.42319	428.90085	-186.60181	1182.67004	-383.47809	-149.18538	551.61005	-342.33298	9.48980	555.08484	-335.45337	-192.86133	598.67700	601.55182	-36.94733	596.09875	609.41174	
6045	60.440	-250.23170	5.49226	-217.12482	83.35223	103.16582	-187.12445	-320.75830	157.69345	417.95438	86.89817	34.72073	429.54654	-185.17833	1183.27820	-381.50241	-149.99301	552.22772	-341.61981	9.01916	554.97839	-334.32101	-192.48650	598.32593	602.60980	-36.57392	595.44653	610.21686	
6046	60.450	-248.76631	6.03130	-216.79607	79.76379	93.03309	-186.50999	-324.46036	148.66954	419.01132	87.50523	33.75395	429.64838	-183.10976	1183.85242	-379.25507	-150.13887	552.77936	-340.43576	8.88190	554.76880	-333.46680	-193.24588	598.89569	604.34723	-36.01669	594.44702	611.22327	
6047	60.460	-247.96010	6.57728	-216.39659	76.03651	81.92233	-185.97099	-329.71381	139.36708	419.80560	89.11052	33.08794	430.20181	-180.97940	1184.51086	-377.47034	-152.24832	553.97833	-339.87488	8.11650	554.50580	-332.54276	-192.58011	598.44629	605.19916	-35.22993	593.65338	612.18713	
6048	60.470	-247.13345	7.14904	-216.13850	72.05160	70.35515	-185.44991	-334.23285	128.86598	420.95117	89.92094	32.08940	430.18878	-178.80220	1184.94702	-375.76541	-151.80553	553.64258	-338.36417	7.93160	554.35669	-331.61502	-192.08206	597.92047	606.55652	-34.56294	592.35278	613.39142	
6049	60.480	-245.93378	7.29054	-215.72957	68.17650	61.87467	-185.42245	-338.38821	118.01266	422.23416	91.14902	31.33384	430.54364	-177.07806	1185.23352	-374.11298	-152.15623	553.76996	-337.17624	6.95563	553.90814	-330.70612	-191.32684	597.22205	607.61584	-34.00364	590.95709	614.15991	
6050	60.490	-244.66025	7.37865	-215.30815	65.37437	53.81390	-185.22252	-341.46075	107.45380	424.39380	92.28803	30.55380	430.81891	-175.84218	1185.56604	-372.21600	-152.87572	553.91260	-336.05005	6.67601	553.36987	-330.07587	-190.61781	596.58380	608.95349	-33.72112	589.73810	615.33063	
6051	60.500	-244.03445	7.71426	-214.85516	62.56261	45.29178	-184.93404	-342.96204	97.67435	426.03439	93.25257	29.62658	431.24115	-174.19267	1185.73853	-370.25259	-153.53850	554.12622	-335.02487	5.92335	552.76477	-329.11340	-190.39020	596.02832	609.89313	-33.67448	588.54785	616.12531	
6052	60.510	-243.08867	8.24453	-214.53758	60.61258	36.06656	-184.18723	-343.52475	88.39415	427.63699	94.71585	28.98181	431.53397	-172.37361	1186.07312	-368.37399	-155.63708	554.67200	-334.42682	5.09646	552.28210	-328.01913	-189.70990	595.74744	611.53467	-33.92923	586.50623	616.51550	
6053	60.520	-241.92064	8.61330	-214.01607	59.32816	26.92430	-182.76154	-342.91544	79.10593	429.26236	95.51056	28.18878	431.87021	-169.88971	1186.23303	-366.86841	-155.48479	554.51477	-332.82016	3.88128	551.79523	-327.22757	-189.69810	595.13434	612.33887	-33.22784	585.76746	617.64520	
6054	60.530	-241.01074	8.95122	-213.70726	58.44549	19.24108	-181.10008	-342.87326	71.26470	430.80499	96.79466	27.10700	432.32501	-167.69847	1186.41260	-365.45612	-157.22148	554.59314	-332.19775	2.78801	551.11865	-326.10019	-189.40227	594.22241	613.03156	-33.53498	584.56042	618.67310	
6055	60.540	-240.20918	9.22949	-213.25856	58.32313	13.20180	-179.68658	-342.17923	64.34255	432.54764	97.83000	26.55597	432.54608	-165.68161	1186.80066	-363.95145	-157.19978	554.28650	-330.66266	1.95777	550.54913	-325.09979	-189.38730	593.59247	614.11481	-33.00379	583.20679	619.63733	
6056	60.550	-239.32063	9.54290	-212.61076	59.74317	13.16487	-181.72508	-341.76215	57.59764	433.97427	98.58672	25.46899	432.68295	-163.99278	1186.75354	-362.27109	-159.31645	554.53442	-329.89676	1.06253	550.06506	-324.18399	-189.45903	593.10260	615.12604	-32.71209	582.43597	620.97711	
6057	60.560	-238.41438	9.67384	-212.38313	61.52742	10.40976	-181.59607	-341.20441	51.04411	435.51340	99.80109	24.85291	433.03397	-162.87108	1186.99768	-360.38330	-158.72427	554.52240	-327.94690	0.75649	550.08807	-323.14584	-189.69875	592.26416	616.62177	-32.72815	581.81641	622.68988	
6058	60.570	-237.08510	10.19777	-211.92838	62.87224	10.86647	-180.31259	-340.87396	43.74036	436.87033	100.44088	23.86784	433.23846	-162.61263	1187.45251	-358.65393	-159.49634	555.79504	-326.75464	-0.39554	550.87427	-321.52264	-189.87520	591.56885	617.85822	-32.93794	580.46606	623.59558	
6059	60.580	-235.90514	10.89554	-211.49452	63.59961	12.87811	-179.99683	-339.45621	35.30455	437.87750	101.79308	23.49372	433.91397	-162.75383	1188.49634	-356.19122	-161.20171	557.56000	-325.91919	-0.47389	552.11707	-320.57785	-189.95171	590.82269	619.25745	-33.38526	579.27100	625.03571	
6060	60.590	-234.97372	11.60152	-211.19830	63.54974	14.09896	-179.30238	-338.21075	20.38077	437.83069	102.65918	22.47660	434.16205	-163.64041	1190.11194	-352.88412	-160.75755	558.56543	-324.09213	-1.49570	552.73364	-319.05188	-190.33401	590.37238	620.72473	-32.91673	578.74768	626.82446	
6061	60.600	-233.99849	12.02318	-211.10556	64.79170	14.99506	-179.24187	-340.54654	18.99396	435.88165	102.98597	21.94226	434.59500	-164.46155	1191.55078	-349.65036	-162.42079	559.81940	-323.16278	-1.88463	553.38171	-317.81693	-189.99516	591.67902	621.35895	-33.40742	578.59039	628.02728	
6062	60.610	-233.69878	13.34643	-210.11302	64.67895	14.78011	-177.50980	-340.54349	20.22668	438.10214	103.44013	22.24025	434.94916	-165.04446	1193.07019	-346.23572	-163.20314	560.48926	-321.50735	-3.42274	553.62433	-316.50558	-189.73589	593.68524	622.93994	-33.07242	579.86194	629.15961	
6063	60.620	-232.82407	18.05927	-210.01791	64.82567	14.86803	-176.26497	-337.67664	18.00137	441.36166	101.78768	24.38517	435.32312	-164.56052	1194.55212	-344.13855	-163.75459	561.67621	-320.20151	-4.18740	555.19379	-315.33743	-189.24590	593.34161	624.56635	-32.64927	580.26099	630.40143	
6064	60.630	-229.28163	22.24767	-206.26765	66.11877	15.54579	-176.45827	-337.15414	17.41654	438.82104	100.37086	27.70673	439.96094	-162.53055	1196.72083	-343.25800	-164.65932	563.53802	-319.18127	-4.15407	557.16925	-314.94986	-188.93410	592.06000	626.21863	-31.89474	579.15228	631.46130	
